<svg width="27" height="28" viewBox="0 0 27 28" fill="none" xmlns="http://www.w3.org/2000/svg">
<path d="M4.596 8.49586V11.8387M8.35733 26.5198H10.8813M22.5605 4.65316V7.99599M18.7991 22.6771H16.2752M9.12588 5.32611C7.32917 4.68157 5.36325 4.68157 3.56654 5.32611C2.02688 5.87895 1 7.33724 1 8.97378V11.5559C1 13.6962 2.73471 15.4309 4.875 15.4309H7.77867V23.8422H11.6924V8.97378C11.6924 7.33724 10.6655 5.87895 9.12588 5.32611ZM18.0306 1.48341C19.8273 0.838865 21.7932 0.838865 23.5899 1.48341C25.1296 2.03624 26.1565 3.49582 26.1565 5.13107V7.71311C26.1565 9.85341 24.4218 11.5882 22.2815 11.5882H19.3778V19.9995H15.4641V5.13107C15.4641 3.49453 16.4909 2.03624 18.0306 1.48341Z" stroke="white" stroke-miterlimit="10" stroke-linecap="square" stroke-linejoin="round"/>
</svg>
