<svg width="37" height="28" viewBox="0 0 37 28" fill="none" xmlns="http://www.w3.org/2000/svg">
<path d="M19.8255 18.4881V7.5C19.7728 6.82937 19.9204 5.51905 20.9325 5.64286C21.9445 5.76667 22.0921 6.41667 22.0394 6.72619V16.0119C24.4114 16.9405 26.3091 16.3214 27.416 15.2381C28.523 14.1548 29.3137 10.75 28.2067 7.65476C27.3212 5.17857 23.8316 3.52778 22.1975 3.0119L14.1326 1V15.3929M19.8255 18.4881C21.2487 17.8175 25.1705 16.569 29.4718 16.9405C33.7731 17.3119 35.3756 18.5397 35.6391 19.1071C36.2189 19.7262 36.5247 21.2738 33.1089 22.5119C29.6932 23.75 22.8301 26.0198 19.8255 27M19.8255 18.4881V27M19.8255 27L14.1326 25.1429V23.5952M14.1326 15.3929L3.2212 18.9524C2.43052 19.3135 0.880789 20.4071 1.0073 21.8929C1.16543 23.75 8.28152 24.2143 9.86288 24.2143C11.128 24.2143 13.2365 23.8016 14.1326 23.5952M14.1326 15.3929V18.3333M14.1326 23.5952V20.3452M14.1326 18.3333L7.17457 20.8095C6.80558 20.9643 6.28901 21.4286 7.17457 22.0476C8.28152 22.8214 13.1838 20.6548 14.1326 20.3452M14.1326 18.3333V20.3452M19.8255 21.7381L28.0486 18.9524C29.1555 18.8492 31.2429 18.8286 30.7369 19.5714C30.2309 20.3143 23.2518 22.5635 19.8255 23.5952V21.7381Z" stroke="white"/>
</svg>
