<svg width="22" height="22" viewBox="0 0 22 22" fill="none" xmlns="http://www.w3.org/2000/svg">
<circle cx="11" cy="11" r="10.5" stroke="white"/>
<path d="M4.58203 2.75C5.467 3.50854 6.84017 4.51119 8.40337 5.70023C5.5348 8.22162 2.81936 11.6974 1.83203 16.0417M19.2487 17.875C18.1885 14.1643 14.5225 10.6068 10.9987 7.73447C7.47486 10.6068 3.80891 14.1643 2.7487 17.875M6.8737 1.375C7.96984 1.83173 9.43464 2.60522 10.9987 3.68079C12.5628 2.60522 14.0276 1.83173 15.1237 1.375M20.1654 16.0417C19.178 11.6974 16.4626 8.22162 13.594 5.70023C15.1572 4.51119 16.5304 3.50854 17.4154 2.75" stroke="white"/>
</svg>
