<svg width="50" height="50" viewBox="0 0 50 50" fill="none" xmlns="http://www.w3.org/2000/svg">
<rect width="50" height="50" rx="10" fill="white"/>
<path d="M28.0501 11.4385L29.1027 13.3088C29.9086 14.7406 31.4307 15.6193 33.0735 15.6013L35.2195 15.5778C37.9479 15.5479 39.6597 18.5129 38.2696 20.8607L37.1763 22.7074C36.3392 24.1212 36.3392 25.8788 37.1763 27.2926L38.2696 29.1393C39.6597 31.4871 37.9479 34.4521 35.2195 34.4222L33.0735 34.3987C31.4307 34.3807 29.9086 35.2595 29.1027 36.6912L28.0501 38.5615C26.7118 40.9392 23.2882 40.9392 21.9499 38.5615L20.8973 36.6912C20.0914 35.2594 18.5693 34.3807 16.9265 34.3987L14.7805 34.4222C12.0521 34.4521 10.3403 31.4871 11.7304 29.1393L12.8238 27.2926C13.6608 25.8788 13.6608 24.1212 12.8237 22.7074L11.7304 20.8607C10.3403 18.5129 12.0521 15.5479 14.7805 15.5778L16.9265 15.6013C18.5693 15.6193 20.0914 14.7405 20.8973 13.3088L21.9499 11.4385C23.2882 9.06079 26.7118 9.0608 28.0501 11.4385Z" stroke="#551E55"/>
<circle cx="25" cy="25" r="7.5" stroke="#551E55"/>
<path d="M32.5 25H25M25 25V17.5M25 25L20 30.5" stroke="#551E55"/>
</svg>
