<svg width="120" height="24" viewBox="0 0 120 24" fill="none" xmlns="http://www.w3.org/2000/svg">
<path d="M11.0489 2.92681C11.3483 2.0055 12.6517 2.0055 12.9511 2.92681L14.4697 7.60057C14.6035 8.01259 14.9875 8.29155 15.4207 8.29155H20.335C21.3037 8.29155 21.7065 9.53117 20.9228 10.1006L16.947 12.9891C16.5966 13.2438 16.4499 13.6951 16.5838 14.1071L18.1024 18.7809C18.4017 19.7022 17.3472 20.4683 16.5635 19.8989L12.5878 17.0104C12.2373 16.7558 11.7627 16.7558 11.4122 17.0104L7.43648 19.8989C6.65276 20.4683 5.59828 19.7022 5.89763 18.7809L7.41623 14.1071C7.55011 13.6951 7.40345 13.2438 7.05296 12.9891L3.07722 10.1006C2.29351 9.53117 2.69628 8.29155 3.66501 8.29155H8.57929C9.01252 8.29155 9.39647 8.01259 9.53035 7.60057L11.0489 2.92681Z" fill="#F3D015"/>
<path d="M35.0489 2.92681C35.3483 2.0055 36.6517 2.0055 36.9511 2.92681L38.4697 7.60057C38.6035 8.01259 38.9875 8.29155 39.4207 8.29155H44.335C45.3037 8.29155 45.7065 9.53117 44.9228 10.1006L40.947 12.9891C40.5966 13.2438 40.4499 13.6951 40.5838 14.1071L42.1024 18.7809C42.4017 19.7022 41.3472 20.4683 40.5635 19.8989L36.5878 17.0104C36.2373 16.7558 35.7627 16.7558 35.4122 17.0104L31.4365 19.8989C30.6528 20.4683 29.5983 19.7022 29.8976 18.7809L31.4162 14.1071C31.5501 13.6951 31.4034 13.2438 31.053 12.9891L27.0772 10.1006C26.2935 9.53117 26.6963 8.29155 27.665 8.29155H32.5793C33.0125 8.29155 33.3965 8.01259 33.5303 7.60057L35.0489 2.92681Z" fill="#F3D015"/>
<path d="M59.0489 2.92681C59.3483 2.0055 60.6517 2.0055 60.9511 2.92681L62.4697 7.60057C62.6035 8.01259 62.9875 8.29155 63.4207 8.29155H68.335C69.3037 8.29155 69.7065 9.53117 68.9228 10.1006L64.947 12.9891C64.5966 13.2438 64.4499 13.6951 64.5838 14.1071L66.1024 18.7809C66.4017 19.7022 65.3472 20.4683 64.5635 19.8989L60.5878 17.0104C60.2373 16.7558 59.7627 16.7558 59.4122 17.0104L55.4365 19.8989C54.6528 20.4683 53.5983 19.7022 53.8976 18.7809L55.4162 14.1071C55.5501 13.6951 55.4034 13.2438 55.053 12.9891L51.0772 10.1006C50.2935 9.53117 50.6963 8.29155 51.665 8.29155H56.5793C57.0125 8.29155 57.3965 8.01259 57.5303 7.60057L59.0489 2.92681Z" fill="#F3D015"/>
<path d="M83.0489 2.92681C83.3483 2.0055 84.6517 2.0055 84.9511 2.92681L86.4697 7.60057C86.6035 8.01259 86.9875 8.29155 87.4207 8.29155H92.335C93.3037 8.29155 93.7065 9.53117 92.9228 10.1006L88.947 12.9891C88.5966 13.2438 88.4499 13.6951 88.5838 14.1071L90.1024 18.7809C90.4017 19.7022 89.3472 20.4683 88.5635 19.8989L84.5878 17.0104C84.2373 16.7558 83.7627 16.7558 83.4122 17.0104L79.4365 19.8989C78.6528 20.4683 77.5983 19.7022 77.8976 18.7809L79.4162 14.1071C79.5501 13.6951 79.4034 13.2438 79.053 12.9891L75.0772 10.1006C74.2935 9.53117 74.6963 8.29155 75.665 8.29155H80.5793C81.0125 8.29155 81.3965 8.01259 81.5303 7.60057L83.0489 2.92681Z" fill="#F3D015"/>
<path d="M107.049 2.92681C107.348 2.0055 108.652 2.0055 108.951 2.92681L110.47 7.60057C110.604 8.01259 110.987 8.29155 111.421 8.29155H116.335C117.304 8.29155 117.706 9.53117 116.923 10.1006L112.947 12.9891C112.597 13.2438 112.45 13.6951 112.584 14.1071L114.102 18.7809C114.402 19.7022 113.347 20.4683 112.564 19.8989L108.588 17.0104C108.237 16.7558 107.763 16.7558 107.412 17.0104L103.436 19.8989C102.653 20.4683 101.598 19.7022 101.898 18.7809L103.416 14.1071C103.55 13.6951 103.403 13.2438 103.053 12.9891L99.0772 10.1006C98.2935 9.53117 98.6963 8.29155 99.665 8.29155H104.579C105.013 8.29155 105.396 8.01259 105.53 7.60057L107.049 2.92681Z" fill="#F3D015"/>
</svg>
